<?xml version="1.0" encoding="UTF-8"?>
<svg id="Layer_1" xmlns="http://www.w3.org/2000/svg" version="1.1" xmlns:xlink="http://www.w3.org/1999/xlink" viewBox="0 0 114.5 32">
  <!-- Generator: Adobe Illustrator 30.1.0, SVG Export Plug-In . SVG Version: 2.1.1 Build 136)  -->
  <defs>
    <style>
      .st0 {
        isolation: isolate;
      }

      .st1 {
        fill: none;
        stroke: #fff;
        stroke-linecap: round;
        stroke-linejoin: round;
        stroke-width: 1.7px;
      }

      .st2 {
        fill: url(#linear-gradient);
      }
    </style>
    <linearGradient id="linear-gradient" x1="0" y1="34" x2="32" y2="2" gradientTransform="translate(0 34) scale(1 -1)" gradientUnits="userSpaceOnUse">
      <stop offset="0" stop-color="#60a5fa"/>
      <stop offset=".5" stop-color="#3b82f6"/>
      <stop offset="1" stop-color="#4f46e5"/>
    </linearGradient>
  </defs>
  <rect class="st2" width="32" height="32" rx="8" ry="8"/>
  <path class="st1" d="M14.3,16.8c1.4,1.8,4,2.2,5.8.8.2-.1.3-.2.5-.4l2.5-2.5c1.6-1.7,1.6-4.3-.1-5.9-1.6-1.6-4.2-1.6-5.8,0l-1.4,1.4"/>
  <path class="st1" d="M17.7,15.2c-1.4-1.8-4-2.2-5.8-.8-.2.1-.3.2-.5.4l-2.5,2.5c-1.6,1.7-1.6,4.3.1,5.9,1.6,1.6,4.2,1.6,5.8,0l1.4-1.4"/>
  <g class="st0">
    <path d="M41.3,23v-14.2h3.6v14.2h-3.6ZM44.1,23v-3.1h6.8v3.1h-6.8Z"/>
    <path d="M53.6,12.1c-.5,0-1-.2-1.3-.5-.3-.4-.5-.8-.5-1.3s.2-1,.5-1.3c.3-.4.8-.5,1.3-.5s1,.2,1.3.5c.3.4.5.8.5,1.3s-.2,1-.5,1.3c-.3.4-.8.5-1.3.5ZM51.8,23v-9.8h3.5v9.8h-3.5Z"/>
    <path d="M56.9,23v-9.8h3.5v9.8h-3.5ZM63.2,23v-5.5c0-.5-.1-.8-.4-1.1s-.6-.4-1-.4-.5,0-.8.2c-.2.1-.4.3-.5.5-.1.2-.2.5-.2.8l-1.4-.6c0-.8.2-1.5.5-2,.3-.6.8-1,1.4-1.3s1.3-.5,2.1-.5,1.3.2,1.9.5c.6.3,1,.8,1.3,1.3.3.5.5,1.2.5,1.9v6.3h-3.5Z"/>
    <path d="M68,23v-14.6h3.5v14.6h-3.5ZM74.3,23l-3.1-5.1,3.1-4.7h3.8l-3.8,5.3v-1.3c.1,0,4,5.8,4,5.8h-4Z"/>
    <path d="M85.9,23.3c-1.1,0-2.1-.2-3-.6s-1.7-.9-2.4-1.6c-.7-.7-1.2-1.4-1.6-2.3s-.6-1.9-.6-2.9.2-2,.6-2.9c.4-.9.9-1.7,1.6-2.3s1.5-1.2,2.4-1.5c.9-.4,1.9-.6,3-.6s2.1.2,3,.6c.9.4,1.7.9,2.4,1.5.7.7,1.2,1.4,1.6,2.3.4.9.6,1.9.6,2.9s-.2,2-.6,2.9c-.4.9-.9,1.7-1.6,2.4-.7.7-1.5,1.2-2.4,1.6s-1.9.5-3,.5ZM85.9,20.1c.8,0,1.5-.2,2.1-.5.6-.3,1-.8,1.4-1.5s.5-1.4.5-2.2,0-1.2-.3-1.7-.4-.9-.8-1.3c-.3-.4-.8-.6-1.2-.8-.5-.2-1-.3-1.6-.3s-1.5.2-2.1.5c-.6.3-1,.8-1.4,1.5s-.5,1.4-.5,2.2,0,1.2.3,1.7c.2.5.4,1,.8,1.3.3.4.8.6,1.2.8.5.2,1,.3,1.6.3Z"/>
    <path d="M94.5,27.1v-13.9h3.5v2.5l-.6,2.4.5,2.4v6.7h-3.4ZM100.3,23.2c-.6,0-1.2-.1-1.7-.3-.5-.2-1-.5-1.3-.9-.3-.4-.6-.8-.6-1.4v-4.8c0-.5.3-1,.7-1.4s.8-.8,1.3-1c.5-.2,1.1-.4,1.7-.4.9,0,1.8.2,2.5.7.7.4,1.3,1,1.7,1.8.4.8.6,1.7.6,2.6s-.2,1.8-.6,2.6c-.4.8-1,1.4-1.7,1.8s-1.6.7-2.5.7ZM99.7,20.1c.4,0,.7,0,1-.3.3-.2.5-.4.7-.7s.2-.6.2-1,0-.7-.2-1-.4-.5-.7-.7c-.3-.2-.6-.3-1-.3s-.7,0-1,.2-.5.4-.7.7c-.2.3-.2.6-.2,1s0,.7.2,1,.4.5.7.7c.3.2.6.3,1,.3Z"/>
    <path d="M109.8,23.3c-.6,0-1.2,0-1.8-.2s-1.1-.4-1.6-.7c-.5-.3-.9-.6-1.3-.9l1.9-1.9c.3.3.7.6,1.2.8.4.2.9.3,1.4.3s.5,0,.7-.1c.2,0,.2-.2.2-.3,0-.2-.1-.4-.3-.5-.2-.1-.5-.2-.9-.3-.4,0-.7-.2-1.1-.3s-.8-.3-1.1-.5c-.4-.2-.7-.5-.9-.9-.2-.4-.3-.9-.3-1.5s.2-1.2.5-1.6c.3-.5.8-.8,1.4-1.1s1.3-.4,2.2-.4,1.6.1,2.4.4c.8.3,1.4.7,1.8,1.3l-1.9,1.9c-.3-.4-.7-.6-1.1-.8-.4-.1-.7-.2-1.1-.2s-.5,0-.7.1-.2.2-.2.3.1.3.3.4c.2.1.5.2.9.3.4,0,.7.2,1.1.3.4.1.7.3,1.1.6s.6.5.9.9.3.9.3,1.5c0,1-.4,1.7-1.1,2.3-.7.6-1.7.9-3,.9Z"/>
  </g>
</svg>