<?xml version="1.0" encoding="UTF-8"?>
<svg id="Layer_1" xmlns="http://www.w3.org/2000/svg" version="1.1" xmlns:xlink="http://www.w3.org/1999/xlink" viewBox="0 0 32 32">
  <!-- Generator: Adobe Illustrator 30.1.0, SVG Export Plug-In . SVG Version: 2.1.1 Build 136)  -->
  <defs>
    <style>
      .st0 {
        fill: none;
        stroke: #fff;
        stroke-linecap: round;
        stroke-linejoin: round;
        stroke-width: 1.7px;
      }

      .st1 {
        fill: url(#linear-gradient);
      }
    </style>
    <linearGradient id="linear-gradient" x1="0" y1="34.1" x2="32" y2="2.1" gradientTransform="translate(0 34.1) scale(1 -1)" gradientUnits="userSpaceOnUse">
      <stop offset="0" stop-color="#60a5fa"/>
      <stop offset=".5" stop-color="#3b82f6"/>
      <stop offset="1" stop-color="#4f46e5"/>
    </linearGradient>
  </defs>
  <rect class="st1" width="32" height="32" rx="8" ry="8"/>
  <path class="st0" d="M14.3,16.8c1.4,1.8,4,2.2,5.8.8.2-.1.3-.2.5-.4l2.5-2.5c1.6-1.7,1.6-4.3-.1-5.9-1.6-1.6-4.2-1.6-5.8,0l-1.4,1.4"/>
  <path class="st0" d="M17.7,15.2c-1.4-1.8-4-2.2-5.8-.8-.2.1-.3.2-.5.4l-2.5,2.5c-1.6,1.7-1.6,4.3.1,5.9,1.6,1.6,4.2,1.6,5.8,0l1.4-1.4"/>
</svg>